<svg xmlns="http://www.w3.org/2000/svg" width="21" height="20" viewBox="0 0 24 24">
  <g id="vuesax_linear_note-remove" data-name="vuesax/linear/note-remove" transform="translate(-236 -316)">
    <g id="note-remove">
      <path id="Vector" d="M0,0H5" transform="translate(243 330)" fill="none" stroke="#ffff" stroke-linecap="round" stroke-linejoin="round" stroke-width="1.5"/>
      <path id="Vector-2" data-name="Vector" d="M3.75,3.75,0,0" transform="translate(239.25 318.21)" fill="none" stroke="#ffff" stroke-linecap="round" stroke-linejoin="round" stroke-width="1.5"/>
      <path id="Vector-3" data-name="Vector" d="M3.75,0,0,3.75" transform="translate(239.21 318.25)" fill="none" stroke="#ffff" stroke-linecap="round" stroke-linejoin="round" stroke-width="1.5"/>
      <path id="Vector-4" data-name="Vector" d="M0,0H8" transform="translate(243 326)" fill="none" stroke="#ffff" stroke-linecap="round" stroke-linejoin="round" stroke-width="1.5"/>
      <path id="Vector-5" data-name="Vector" d="M0,0H6c3.33.18,5,1.41,5,5.99V14" transform="translate(246 318)" fill="none" stroke="#ffff" stroke-linecap="round" stroke-linejoin="round" stroke-width="1.5"/>
      <path id="Vector-6" data-name="Vector" d="M0,0V6.97c0,4.01,1,6.02,6,6.02h6" transform="translate(239 325.01)" fill="none" stroke="#ffff" stroke-linecap="round" stroke-linejoin="round" stroke-width="1.5"/>
      <path id="Vector-7" data-name="Vector" d="M6,0,0,6V3A2.652,2.652,0,0,1,3,0Z" transform="translate(251 332)" fill="none" stroke="#ffff" stroke-linecap="round" stroke-linejoin="round" stroke-width="1.5"/>
      <path id="Vector-8" data-name="Vector" d="M0,0H24V24H0Z" transform="translate(236 316)" fill="none" opacity="0"/>
    </g>
  </g>
</svg>
