<svg xmlns="http://www.w3.org/2000/svg" width="42" height="42" viewBox="0 0 24 24">
  <g id="vuesax_outline_gameboy" data-name="vuesax/outline/gameboy" transform="translate(-563 -380)">
    <g id="gameboy">
      <path id="Vector" d="M13.75,21.5h-8C2.1,21.5,0,19.4,0,15.75v-10C0,2.1,2.1,0,5.75,0h8C17.4,0,19.5,2.1,19.5,5.75v10C19.5,19.4,17.4,21.5,13.75,21.5Zm-8-20C2.89,1.5,1.5,2.89,1.5,5.75v10C1.5,18.61,2.89,20,5.75,20h8C16.61,20,18,18.61,18,15.75v-10c0-2.86-1.39-4.25-4.25-4.25Z" transform="translate(565.25 381.25)" fill="#fff"/>
      <path id="Vector-2" data-name="Vector" d="M11,7.5H2.5A2.5,2.5,0,0,1,0,5V2.5A2.5,2.5,0,0,1,2.5,0H11a2.5,2.5,0,0,1,2.5,2.5V5A2.5,2.5,0,0,1,11,7.5Zm-8.5-6a1,1,0,0,0-1,1V5a1,1,0,0,0,1,1H11a1,1,0,0,0,1-1V2.5a1,1,0,0,0-1-1Z" transform="translate(568.25 384.25)" fill="#fff"/>
      <path id="Vector-3" data-name="Vector" d="M.747,3.8a.742.742,0,0,1-.53-.22.754.754,0,0,1,0-1.06l2.3-2.3a.75.75,0,0,1,1.06,1.06l-2.3,2.3A.742.742,0,0,1,.747,3.8Z" transform="translate(570.252 394.532)" fill="#ffff"/>
      <path id="Vector-4" data-name="Vector" d="M3.047,3.8a.742.742,0,0,1-.53-.22l-2.3-2.3A.75.75,0,0,1,1.277.218l2.3,2.3a.754.754,0,0,1,0,1.06A.742.742,0,0,1,3.047,3.8Z" transform="translate(570.282 394.563)" fill="#ffff"/>
      <path id="Vector-5" data-name="Vector" d="M1.01,2A1.012,1.012,0,0,1,0,1,.994.994,0,0,1,.99,0h.02a1,1,0,0,1,0,2Z" transform="translate(578.5 394.33)" fill="#ffff"/>
      <path id="Vector-6" data-name="Vector" d="M1,2.01a.994.994,0,0,1-1-.99V1A1,1,0,0,1,2,1,1.012,1.012,0,0,1,1,2.01Z" transform="translate(576.49 396.48)" fill="#fff"/>
      <path id="Vector-7" data-name="Vector" d="M0,0H24V24H0Z" transform="translate(563 380)" fill="none" opacity="0"/>
    </g>
  </g>
</svg>
