<svg xmlns="http://www.w3.org/2000/svg" xmlns:xlink="http://www.w3.org/1999/xlink" width="167.004" height="70.091" viewBox="0 0 167.004 70.091"><defs><linearGradient id="a" x1="0.5" x2="0.5" y2="1" gradientUnits="objectBoundingBox"><stop offset="0" stop-color="#6366f1"/><stop offset="1" stop-color="#323379"/></linearGradient></defs><g transform="translate(-13 4.76)"><text transform="translate(62 26)" fill="#f59e0b" font-size="28" font-family="Khandevane"><tspan x="-48.713" y="0">بلاگ</tspan><tspan y="0" fill="#6366f1">دیجی </tspan></text><path d="M25.342.563A6.146,6.146,0,0,1,29.5.216l18.038,5.2A5.19,5.19,0,0,1,51.2,11L49.443,34.873A7.657,7.657,0,0,1,44.9,41.144l-19.03,8.292a6.146,6.146,0,0,1-4.161.347l-18.038-5.2A5.19,5.19,0,0,1,.017,39L1.773,15.127A7.657,7.657,0,0,1,6.312,8.856L25.342.563Zm1.64,5.756-17.216,7.5,16.32,4.7,17.216-7.5ZM27.406,42.3l15.858-6.9,1.359-18.485-15.858,6.9Z" transform="matrix(0.829, 0.559, -0.559, 0.829, 137.545, -4.76)" fill="url(#a)"/><text transform="translate(104 47)" fill="#818cf8" font-size="13" font-family="Khandevane"><tspan x="-81.738" y="0">رسانه ای برای مردم</tspan></text></g></svg>