<svg xmlns="http://www.w3.org/2000/svg" width="42" height="42" viewBox="0 0 24 24">
  <g id="vuesax_outline_cpu-setting" data-name="vuesax/outline/cpu-setting" transform="translate(-364 -188)">
    <g id="cpu-setting">
      <path id="Vector" d="M6.35,17.5C1.96,17.5,0,15.54,0,11.15V6.35C0,1.96,1.96,0,6.35,0h4.8c4.39,0,6.35,1.96,6.35,6.35a.75.75,0,0,1-1.5,0c0-3.58-1.27-4.85-4.85-4.85H6.35C2.77,1.5,1.5,2.77,1.5,6.35v4.8C1.5,14.73,2.77,16,6.35,16a.75.75,0,0,1,0,1.5Z" transform="translate(367.25 191.25)" fill="#ffff"/>
      <path id="Vector-2" data-name="Vector" d="M1.75,10.85a.763.763,0,0,1-.47-.16A4.068,4.068,0,0,1,0,7.25v-3C0,1.35,1.35,0,4.25,0h3a4.081,4.081,0,0,1,3.44,1.28.747.747,0,0,1-.12,1.05.738.738,0,0,1-1.05-.12c-.24-.31-.74-.71-2.26-.71h-3c-2.08,0-2.75.67-2.75,2.75v3c0,1.52.41,2.02.71,2.26a.754.754,0,0,1-.47,1.34Z" transform="translate(370.24 194.25)" fill="#ffff"/>
      <path id="Vector-3" data-name="Vector" d="M.75,3.5A.749.749,0,0,1,0,2.75v-2A.755.755,0,0,1,.75,0,.755.755,0,0,1,1.5.75v2A.755.755,0,0,1,.75,3.5Z" transform="translate(371.26 189.25)" fill="#ffff"/>
      <path id="Vector-4" data-name="Vector" d="M.75,3.5A.755.755,0,0,1,0,2.75v-2A.755.755,0,0,1,.75,0,.755.755,0,0,1,1.5.75v2A.755.755,0,0,1,.75,3.5Z" transform="translate(375.25 189.25)" fill="#ffff"/>
      <path id="Vector-5" data-name="Vector" d="M.75,3.5A.755.755,0,0,1,0,2.75v-2A.755.755,0,0,1,.75,0,.755.755,0,0,1,1.5.75v2A.755.755,0,0,1,.75,3.5Z" transform="translate(379.25 189.25)" fill="#ffff"/>
      <path id="Vector-6" data-name="Vector" d="M2.75,1.5h-2A.755.755,0,0,1,0,.75.755.755,0,0,1,.75,0h2a.75.75,0,0,1,0,1.5Z" transform="translate(383.25 195.25)" fill="#ffff"/>
      <path id="Vector-7" data-name="Vector" d="M.75,3.5A.755.755,0,0,1,0,2.75v-2A.755.755,0,0,1,.75,0,.755.755,0,0,1,1.5.75v2A.755.755,0,0,1,.75,3.5Z" transform="translate(371.26 207.25)" fill="#ffff"/>
      <path id="Vector-8" data-name="Vector" d="M2.75,1.5h-2A.75.75,0,0,1,.75,0h2a.75.75,0,0,1,0,1.5Z" transform="translate(365.25 195.25)" fill="#ffff"/>
      <path id="Vector-9" data-name="Vector" d="M2.75,1.5h-2A.755.755,0,0,1,0,.75.755.755,0,0,1,.75,0h2a.75.75,0,0,1,0,1.5Z" transform="translate(365.25 199.25)" fill="#ffff"/>
      <path id="Vector-10" data-name="Vector" d="M2.75,1.5h-2A.755.755,0,0,1,0,.75.755.755,0,0,1,.75,0h2a.75.75,0,0,1,0,1.5Z" transform="translate(365.25 203.25)" fill="#ffff"/>
      <path id="Vector-11" data-name="Vector" d="M2.34,4.68A2.34,2.34,0,1,1,4.68,2.34,2.343,2.343,0,0,1,2.34,4.68Zm0-3.18a.84.84,0,1,0,.84.84A.845.845,0,0,0,2.34,1.5Z" transform="translate(378.37 202.66)" fill="#ffff"/>
      <path id="Vector-12" data-name="Vector" d="M7.75,11.49a1.627,1.627,0,0,1-1.41-.81l-.07-.11a.6.6,0,0,0-.22-.25.586.586,0,0,0-.22.25l-.06.1a1.63,1.63,0,0,1-2.24.59l-.9-.52a1.706,1.706,0,0,1-.82-1.07,1.761,1.761,0,0,1,.17-1.33c.11-.19.11-.3.1-.32a.581.581,0,0,0-.32-.06A1.761,1.761,0,0,1,0,6.21V5.28A1.752,1.752,0,0,1,1.75,3.53a.617.617,0,0,0,.33-.07.659.659,0,0,0-.11-.31A1.723,1.723,0,0,1,1.8,1.82,1.76,1.76,0,0,1,2.62.75L3.53.22A1.624,1.624,0,0,1,5.75.81l.06.11a.6.6,0,0,0,.22.25A.586.586,0,0,0,6.25.92l.06-.1A1.633,1.633,0,0,1,8.55.23l.93.51a1.706,1.706,0,0,1,.82,1.07,1.761,1.761,0,0,1-.17,1.33c-.11.19-.11.3-.1.32a.581.581,0,0,0,.32.06,1.761,1.761,0,0,1,1.76,1.75V6.2a1.752,1.752,0,0,1-1.75,1.75.617.617,0,0,0-.33.07.659.659,0,0,0,.11.31,1.723,1.723,0,0,1,.17,1.33,1.76,1.76,0,0,1-.82,1.07l-.91.53A1.706,1.706,0,0,1,7.75,11.49ZM6.06,8.82a1.787,1.787,0,0,1,1.52,1l.06.11a.125.125,0,0,0,.17.04l.92-.53a.243.243,0,0,0,.12-.16.268.268,0,0,0-.02-.19,1.771,1.771,0,0,1-.1-1.81,1.788,1.788,0,0,1,1.62-.82.263.263,0,0,0,.26-.25V5.28a.254.254,0,0,0-.25-.25,1.777,1.777,0,0,1-1.62-.82,1.8,1.8,0,0,1,.1-1.81.193.193,0,0,0,.02-.19.267.267,0,0,0-.12-.16l-.91-.53a.143.143,0,0,0-.19.05l-.05.09a1.787,1.787,0,0,1-1.52,1,1.787,1.787,0,0,1-1.52-1l-.06-.1a.131.131,0,0,0-.17-.05l-.92.53a.243.243,0,0,0-.12.16.268.268,0,0,0,.02.19A1.771,1.771,0,0,1,3.4,4.2a1.788,1.788,0,0,1-1.62.82.263.263,0,0,0-.26.25V6.2a.254.254,0,0,0,.25.25,1.777,1.777,0,0,1,1.62.82,1.8,1.8,0,0,1-.1,1.81.267.267,0,0,0,.1.35l.91.53a.143.143,0,0,0,.19-.05l.05-.1A1.783,1.783,0,0,1,6.06,8.82Z" transform="translate(374.65 199.26)" fill="#ffff"/>
      <path id="Vector-13" data-name="Vector" d="M0,0H24V24H0Z" transform="translate(364 188)" fill="none" opacity="0"/>
    </g>
  </g>
</svg>
